<mxfile host="" modified="2021-04-17T06:56:27.553Z" agent="5.0 (Macintosh; Intel Mac OS X 10_16_0) AppleWebKit/537.36 (KHTML, like Gecko) Code/1.45.1 Chrome/78.0.3904.130 Electron/7.2.4 Safari/537.36" etag="Dr8RIDmuuT-a1bf7Y-vh" version="13.1.3">
    <diagram id="6hGFLwfOUW9BJ-s0fimq" name="Page-1">
        <mxGraphModel dx="940" dy="745" grid="0" gridSize="10" guides="1" tooltips="1" connect="1" arrows="1" fold="1" page="1" pageScale="1" pageWidth="1169" pageHeight="827" background="#ffffff" math="0" shadow="0">
            <root>
                <mxCell id="0"/>
                <mxCell id="1" parent="0"/>
                <mxCell id="214" style="edgeStyle=orthogonalEdgeStyle;rounded=0;jumpStyle=none;orthogonalLoop=1;jettySize=auto;html=1;shadow=0;startArrow=ERone;startFill=0;endArrow=ERzeroToMany;endFill=1;entryX=0.167;entryY=0;entryDx=0;entryDy=0;entryPerimeter=0;fontColor=#0D0D0D;fillColor=none;labelBackgroundColor=none;strokeColor=#0D0D0D;" parent="1" target="154" edge="1">
                    <mxGeometry relative="1" as="geometry">
                        <mxPoint x="580.0002325581396" y="536" as="targetPoint"/>
                        <mxPoint x="580.07" y="486" as="sourcePoint"/>
                        <Array as="points"/>
                    </mxGeometry>
                </mxCell>
                <mxCell id="219" style="edgeStyle=orthogonalEdgeStyle;rounded=0;jumpStyle=none;orthogonalLoop=1;jettySize=auto;html=1;exitX=0.5;exitY=0;exitDx=0;exitDy=0;shadow=0;startArrow=ERone;startFill=0;endArrow=ERzeroToMany;endFill=1;entryX=0.5;entryY=1.023;entryDx=0;entryDy=0;entryPerimeter=0;fontColor=#0D0D0D;fillColor=none;labelBackgroundColor=none;strokeColor=#0D0D0D;" parent="1" source="3" target="170" edge="1">
                    <mxGeometry relative="1" as="geometry">
                        <mxPoint x="539.952380952381" y="200" as="targetPoint"/>
                    </mxGeometry>
                </mxCell>
                <mxCell id="3" value="user" style="swimlane;fontStyle=0;childLayout=stackLayout;horizontal=1;startSize=26;horizontalStack=0;resizeParent=1;resizeParentMax=0;resizeLast=0;collapsible=1;marginBottom=0;align=center;fontSize=14;fillColor=#b1ddf0;labelBackgroundColor=none;strokeColor=#10739e;fontColor=#000000;" parent="1" vertex="1">
                    <mxGeometry x="480" y="290" width="120" height="196" as="geometry"/>
                </mxCell>
                <mxCell id="4" value="ID" style="shape=partialRectangle;top=0;left=0;right=0;bottom=1;align=left;verticalAlign=middle;spacingLeft=34;spacingRight=4;overflow=hidden;rotatable=0;points=[[0,0.5],[1,0.5]];portConstraint=eastwest;dropTarget=0;fontStyle=5;fontSize=12;fillColor=none;labelBackgroundColor=none;strokeColor=#0D0D0D;fontColor=#0D0D0D;" parent="3" vertex="1">
                    <mxGeometry y="26" width="120" height="30" as="geometry"/>
                </mxCell>
                <mxCell id="5" value="PK" style="shape=partialRectangle;top=0;left=0;bottom=0;align=left;verticalAlign=middle;spacingLeft=4;spacingRight=4;overflow=hidden;rotatable=0;points=[];portConstraint=eastwest;part=1;fontSize=12;fillColor=none;labelBackgroundColor=none;strokeColor=#0D0D0D;fontColor=#0D0D0D;" parent="4" vertex="1" connectable="0">
                    <mxGeometry width="30" height="30" as="geometry"/>
                </mxCell>
                <mxCell id="6" value="name" style="shape=partialRectangle;top=0;left=0;right=0;bottom=0;align=left;verticalAlign=top;spacingLeft=34;spacingRight=4;overflow=hidden;rotatable=0;points=[[0,0.5],[1,0.5]];portConstraint=eastwest;dropTarget=0;fontSize=12;fillColor=none;labelBackgroundColor=none;strokeColor=#0D0D0D;fontColor=#0D0D0D;" parent="3" vertex="1">
                    <mxGeometry y="56" width="120" height="26" as="geometry"/>
                </mxCell>
                <mxCell id="7" value="" style="shape=partialRectangle;top=0;left=0;bottom=0;align=left;verticalAlign=top;spacingLeft=4;spacingRight=4;overflow=hidden;rotatable=0;points=[];portConstraint=eastwest;part=1;fontSize=12;fillColor=none;labelBackgroundColor=none;strokeColor=#0D0D0D;fontColor=#0D0D0D;" parent="6" vertex="1" connectable="0">
                    <mxGeometry width="30" height="26" as="geometry"/>
                </mxCell>
                <mxCell id="8" value="email" style="shape=partialRectangle;top=0;left=0;right=0;bottom=0;align=left;verticalAlign=top;spacingLeft=34;spacingRight=4;overflow=hidden;rotatable=0;points=[[0,0.5],[1,0.5]];portConstraint=eastwest;dropTarget=0;fontSize=12;fillColor=none;labelBackgroundColor=none;strokeColor=#0D0D0D;fontColor=#0D0D0D;" parent="3" vertex="1">
                    <mxGeometry y="82" width="120" height="26" as="geometry"/>
                </mxCell>
                <mxCell id="9" value="" style="shape=partialRectangle;top=0;left=0;bottom=0;align=left;verticalAlign=top;spacingLeft=4;spacingRight=4;overflow=hidden;rotatable=0;points=[];portConstraint=eastwest;part=1;fontSize=12;fillColor=none;labelBackgroundColor=none;strokeColor=#0D0D0D;fontColor=#0D0D0D;" parent="8" vertex="1" connectable="0">
                    <mxGeometry width="30" height="26" as="geometry"/>
                </mxCell>
                <mxCell id="10" value="password" style="shape=partialRectangle;top=0;left=0;right=0;bottom=0;align=left;verticalAlign=top;spacingLeft=34;spacingRight=4;overflow=hidden;rotatable=0;points=[[0,0.5],[1,0.5]];portConstraint=eastwest;dropTarget=0;fontSize=12;fillColor=none;labelBackgroundColor=none;strokeColor=#0D0D0D;fontColor=#0D0D0D;" parent="3" vertex="1">
                    <mxGeometry y="108" width="120" height="26" as="geometry"/>
                </mxCell>
                <mxCell id="11" value="" style="shape=partialRectangle;top=0;left=0;bottom=0;align=left;verticalAlign=top;spacingLeft=4;spacingRight=4;overflow=hidden;rotatable=0;points=[];portConstraint=eastwest;part=1;fontSize=12;fillColor=none;labelBackgroundColor=none;strokeColor=#0D0D0D;fontColor=#0D0D0D;" parent="10" vertex="1" connectable="0">
                    <mxGeometry width="30" height="26" as="geometry"/>
                </mxCell>
                <mxCell id="34" value="image" style="shape=partialRectangle;top=0;left=0;right=0;bottom=0;align=left;verticalAlign=top;spacingLeft=34;spacingRight=4;overflow=hidden;rotatable=0;points=[[0,0.5],[1,0.5]];portConstraint=eastwest;dropTarget=0;fontSize=12;fillColor=none;labelBackgroundColor=none;strokeColor=#0D0D0D;fontColor=#0D0D0D;" parent="3" vertex="1">
                    <mxGeometry y="134" width="120" height="26" as="geometry"/>
                </mxCell>
                <mxCell id="35" value="" style="shape=partialRectangle;top=0;left=0;bottom=0;align=left;verticalAlign=top;spacingLeft=4;spacingRight=4;overflow=hidden;rotatable=0;points=[];portConstraint=eastwest;part=1;fontSize=12;fillColor=none;labelBackgroundColor=none;strokeColor=#0D0D0D;fontColor=#0D0D0D;" parent="34" vertex="1" connectable="0">
                    <mxGeometry width="30" height="26" as="geometry"/>
                </mxCell>
                <mxCell id="36" value="token" style="shape=partialRectangle;top=0;left=0;right=0;bottom=0;align=left;verticalAlign=top;spacingLeft=34;spacingRight=4;overflow=hidden;rotatable=0;points=[[0,0.5],[1,0.5]];portConstraint=eastwest;dropTarget=0;fontSize=12;fillColor=none;labelBackgroundColor=none;strokeColor=#0D0D0D;fontColor=#0D0D0D;" parent="3" vertex="1">
                    <mxGeometry y="160" width="120" height="26" as="geometry"/>
                </mxCell>
                <mxCell id="37" value="" style="shape=partialRectangle;top=0;left=0;bottom=0;align=left;verticalAlign=top;spacingLeft=4;spacingRight=4;overflow=hidden;rotatable=0;points=[];portConstraint=eastwest;part=1;fontSize=12;fillColor=none;labelBackgroundColor=none;strokeColor=#0D0D0D;fontColor=#0D0D0D;" parent="36" vertex="1" connectable="0">
                    <mxGeometry width="30" height="26" as="geometry"/>
                </mxCell>
                <mxCell id="12" value="" style="shape=partialRectangle;top=0;left=0;right=0;bottom=0;align=left;verticalAlign=top;spacingLeft=34;spacingRight=4;overflow=hidden;rotatable=0;points=[[0,0.5],[1,0.5]];portConstraint=eastwest;dropTarget=0;fontSize=12;fillColor=none;labelBackgroundColor=none;strokeColor=#0D0D0D;fontColor=#0D0D0D;" parent="3" vertex="1">
                    <mxGeometry y="186" width="120" height="10" as="geometry"/>
                </mxCell>
                <mxCell id="13" value="" style="shape=partialRectangle;top=0;left=0;bottom=0;align=left;verticalAlign=top;spacingLeft=4;spacingRight=4;overflow=hidden;rotatable=0;points=[];portConstraint=eastwest;part=1;fontSize=12;fillColor=none;labelBackgroundColor=none;strokeColor=#0D0D0D;fontColor=#0D0D0D;" parent="12" vertex="1" connectable="0">
                    <mxGeometry width="30" height="10" as="geometry"/>
                </mxCell>
                <mxCell id="207" style="edgeStyle=orthogonalEdgeStyle;rounded=0;jumpStyle=none;orthogonalLoop=1;jettySize=auto;html=1;entryX=1;entryY=0.5;entryDx=0;entryDy=0;shadow=0;startArrow=ERone;startFill=0;endArrow=ERzeroToMany;endFill=1;fontColor=#0D0D0D;fillColor=none;labelBackgroundColor=none;strokeColor=#0D0D0D;" parent="1" target="87" edge="1">
                    <mxGeometry relative="1" as="geometry">
                        <mxPoint x="480" y="441" as="sourcePoint"/>
                    </mxGeometry>
                </mxCell>
                <mxCell id="209" style="edgeStyle=orthogonalEdgeStyle;rounded=0;jumpStyle=none;orthogonalLoop=1;jettySize=auto;html=1;shadow=0;startArrow=ERone;startFill=0;endArrow=ERzeroToMany;endFill=1;entryX=1;entryY=0.5;entryDx=0;entryDy=0;fontColor=#0D0D0D;fillColor=none;labelBackgroundColor=none;strokeColor=#0D0D0D;" parent="1" target="225" edge="1">
                    <mxGeometry relative="1" as="geometry">
                        <mxPoint x="480" y="335" as="sourcePoint"/>
                        <mxPoint x="420" y="335" as="targetPoint"/>
                        <Array as="points">
                            <mxPoint x="435" y="335"/>
                        </Array>
                    </mxGeometry>
                </mxCell>
                <mxCell id="211" style="edgeStyle=orthogonalEdgeStyle;rounded=0;jumpStyle=none;orthogonalLoop=1;jettySize=auto;html=1;shadow=0;startArrow=ERone;startFill=0;endArrow=ERzeroToMany;endFill=1;exitX=0.833;exitY=1;exitDx=0;exitDy=0;exitPerimeter=0;fontColor=#0D0D0D;fillColor=none;labelBackgroundColor=none;strokeColor=#0D0D0D;" parent="1" source="95" target="148" edge="1">
                    <mxGeometry relative="1" as="geometry">
                        <mxPoint x="350.0000000000002" y="550" as="sourcePoint"/>
                        <mxPoint x="402" y="639" as="targetPoint"/>
                        <Array as="points">
                            <mxPoint x="370" y="629"/>
                        </Array>
                    </mxGeometry>
                </mxCell>
                <mxCell id="212" style="edgeStyle=orthogonalEdgeStyle;rounded=0;jumpStyle=none;orthogonalLoop=1;jettySize=auto;html=1;shadow=0;startArrow=ERone;startFill=0;endArrow=ERzeroToMany;endFill=1;exitX=0.333;exitY=1;exitDx=0;exitDy=0;exitPerimeter=0;fontColor=#0D0D0D;fillColor=none;labelBackgroundColor=none;strokeColor=#0D0D0D;" parent="1" source="95" target="157" edge="1">
                    <mxGeometry relative="1" as="geometry">
                        <mxPoint x="260.0000000000002" y="540" as="sourcePoint"/>
                        <mxPoint x="260" y="750" as="targetPoint"/>
                        <Array as="points">
                            <mxPoint x="310" y="695"/>
                        </Array>
                    </mxGeometry>
                </mxCell>
                <mxCell id="154" value="bookmark" style="swimlane;fontStyle=0;childLayout=stackLayout;horizontal=1;startSize=26;horizontalStack=0;resizeParent=1;resizeParentMax=0;resizeLast=0;collapsible=1;marginBottom=0;align=center;fontSize=14;fillColor=#b1ddf0;labelBackgroundColor=none;strokeColor=#10739e;fontColor=#000000;" parent="1" vertex="1">
                    <mxGeometry x="560" y="600" width="120" height="118" as="geometry"/>
                </mxCell>
                <mxCell id="155" value="ID" style="shape=partialRectangle;top=0;left=0;right=0;bottom=1;align=left;verticalAlign=middle;spacingLeft=34;spacingRight=4;overflow=hidden;rotatable=0;points=[[0,0.5],[1,0.5]];portConstraint=eastwest;dropTarget=0;fontStyle=5;fontSize=12;fillColor=none;labelBackgroundColor=none;strokeColor=#0D0D0D;fontColor=#0D0D0D;" parent="154" vertex="1">
                    <mxGeometry y="26" width="120" height="30" as="geometry"/>
                </mxCell>
                <mxCell id="156" value="PK" style="shape=partialRectangle;top=0;left=0;bottom=0;align=left;verticalAlign=middle;spacingLeft=4;spacingRight=4;overflow=hidden;rotatable=0;points=[];portConstraint=eastwest;part=1;fontSize=12;fillColor=none;labelBackgroundColor=none;strokeColor=#0D0D0D;fontColor=#0D0D0D;" parent="155" vertex="1" connectable="0">
                    <mxGeometry width="30" height="30" as="geometry"/>
                </mxCell>
                <mxCell id="159" value="user_id" style="shape=partialRectangle;top=0;left=0;right=0;bottom=0;align=left;verticalAlign=top;spacingLeft=34;spacingRight=4;overflow=hidden;rotatable=0;points=[[0,0.5],[1,0.5]];portConstraint=eastwest;dropTarget=0;fontSize=12;fillColor=none;labelBackgroundColor=none;strokeColor=#0D0D0D;fontColor=#0D0D0D;" parent="154" vertex="1">
                    <mxGeometry y="56" width="120" height="26" as="geometry"/>
                </mxCell>
                <mxCell id="160" value="FK" style="shape=partialRectangle;top=0;left=0;bottom=0;align=left;verticalAlign=top;spacingLeft=4;spacingRight=4;overflow=hidden;rotatable=0;points=[];portConstraint=eastwest;part=1;fontSize=12;fillColor=none;labelBackgroundColor=none;strokeColor=#0D0D0D;fontColor=#0D0D0D;" parent="159" vertex="1" connectable="0">
                    <mxGeometry width="30" height="26" as="geometry"/>
                </mxCell>
                <mxCell id="157" value="post_id" style="shape=partialRectangle;top=0;left=0;right=0;bottom=0;align=left;verticalAlign=top;spacingLeft=34;spacingRight=4;overflow=hidden;rotatable=0;points=[[0,0.5],[1,0.5]];portConstraint=eastwest;dropTarget=0;fontSize=12;fillColor=none;labelBackgroundColor=none;strokeColor=#0D0D0D;fontColor=#0D0D0D;" parent="154" vertex="1">
                    <mxGeometry y="82" width="120" height="26" as="geometry"/>
                </mxCell>
                <mxCell id="158" value="FK" style="shape=partialRectangle;top=0;left=0;bottom=0;align=left;verticalAlign=top;spacingLeft=4;spacingRight=4;overflow=hidden;rotatable=0;points=[];portConstraint=eastwest;part=1;fontSize=12;fillColor=none;labelBackgroundColor=none;strokeColor=#0D0D0D;fontColor=#0D0D0D;" parent="157" vertex="1" connectable="0">
                    <mxGeometry width="30" height="26" as="geometry"/>
                </mxCell>
                <mxCell id="161" value="" style="shape=partialRectangle;top=0;left=0;right=0;bottom=0;align=left;verticalAlign=top;spacingLeft=34;spacingRight=4;overflow=hidden;rotatable=0;points=[[0,0.5],[1,0.5]];portConstraint=eastwest;dropTarget=0;fontSize=12;fillColor=none;labelBackgroundColor=none;strokeColor=#0D0D0D;fontColor=#0D0D0D;" parent="154" vertex="1">
                    <mxGeometry y="108" width="120" height="10" as="geometry"/>
                </mxCell>
                <mxCell id="162" value="" style="shape=partialRectangle;top=0;left=0;bottom=0;align=left;verticalAlign=top;spacingLeft=4;spacingRight=4;overflow=hidden;rotatable=0;points=[];portConstraint=eastwest;part=1;fontSize=12;fillColor=none;labelBackgroundColor=none;strokeColor=#0D0D0D;fontColor=#0D0D0D;" parent="161" vertex="1" connectable="0">
                    <mxGeometry width="30" height="10" as="geometry"/>
                </mxCell>
                <mxCell id="145" value="like" style="swimlane;fontStyle=0;childLayout=stackLayout;horizontal=1;startSize=26;horizontalStack=0;resizeParent=1;resizeParentMax=0;resizeLast=0;collapsible=1;marginBottom=0;align=center;fontSize=14;fillColor=#b1ddf0;labelBackgroundColor=none;strokeColor=#10739e;fontColor=#000000;" parent="1" vertex="1">
                    <mxGeometry x="410" y="560" width="120" height="118" as="geometry"/>
                </mxCell>
                <mxCell id="146" value="ID" style="shape=partialRectangle;top=0;left=0;right=0;bottom=1;align=left;verticalAlign=middle;spacingLeft=34;spacingRight=4;overflow=hidden;rotatable=0;points=[[0,0.5],[1,0.5]];portConstraint=eastwest;dropTarget=0;fontStyle=5;fontSize=12;fillColor=none;labelBackgroundColor=none;strokeColor=#0D0D0D;fontColor=#0D0D0D;" parent="145" vertex="1">
                    <mxGeometry y="26" width="120" height="30" as="geometry"/>
                </mxCell>
                <mxCell id="147" value="PK" style="shape=partialRectangle;top=0;left=0;bottom=0;align=left;verticalAlign=middle;spacingLeft=4;spacingRight=4;overflow=hidden;rotatable=0;points=[];portConstraint=eastwest;part=1;fontSize=12;fillColor=none;labelBackgroundColor=none;strokeColor=#0D0D0D;fontColor=#0D0D0D;" parent="146" vertex="1" connectable="0">
                    <mxGeometry width="30" height="30" as="geometry"/>
                </mxCell>
                <mxCell id="148" value="post_id" style="shape=partialRectangle;top=0;left=0;right=0;bottom=0;align=left;verticalAlign=top;spacingLeft=34;spacingRight=4;overflow=hidden;rotatable=0;points=[[0,0.5],[1,0.5]];portConstraint=eastwest;dropTarget=0;fontSize=12;fillColor=none;labelBackgroundColor=none;strokeColor=#0D0D0D;fontColor=#0D0D0D;" parent="145" vertex="1">
                    <mxGeometry y="56" width="120" height="26" as="geometry"/>
                </mxCell>
                <mxCell id="149" value="FK" style="shape=partialRectangle;top=0;left=0;bottom=0;align=left;verticalAlign=top;spacingLeft=4;spacingRight=4;overflow=hidden;rotatable=0;points=[];portConstraint=eastwest;part=1;fontSize=12;fillColor=none;labelBackgroundColor=none;strokeColor=#0D0D0D;fontColor=#0D0D0D;" parent="148" vertex="1" connectable="0">
                    <mxGeometry width="30" height="26" as="geometry"/>
                </mxCell>
                <mxCell id="150" value="user_id" style="shape=partialRectangle;top=0;left=0;right=0;bottom=0;align=left;verticalAlign=top;spacingLeft=34;spacingRight=4;overflow=hidden;rotatable=0;points=[[0,0.5],[1,0.5]];portConstraint=eastwest;dropTarget=0;fontSize=12;fillColor=none;labelBackgroundColor=none;strokeColor=#0D0D0D;fontColor=#0D0D0D;" parent="145" vertex="1">
                    <mxGeometry y="82" width="120" height="26" as="geometry"/>
                </mxCell>
                <mxCell id="151" value="FK" style="shape=partialRectangle;top=0;left=0;bottom=0;align=left;verticalAlign=top;spacingLeft=4;spacingRight=4;overflow=hidden;rotatable=0;points=[];portConstraint=eastwest;part=1;fontSize=12;fillColor=none;labelBackgroundColor=none;strokeColor=#0D0D0D;fontColor=#0D0D0D;" parent="150" vertex="1" connectable="0">
                    <mxGeometry width="30" height="26" as="geometry"/>
                </mxCell>
                <mxCell id="152" value="" style="shape=partialRectangle;top=0;left=0;right=0;bottom=0;align=left;verticalAlign=top;spacingLeft=34;spacingRight=4;overflow=hidden;rotatable=0;points=[[0,0.5],[1,0.5]];portConstraint=eastwest;dropTarget=0;fontSize=12;fillColor=none;labelBackgroundColor=none;strokeColor=#0D0D0D;fontColor=#0D0D0D;" parent="145" vertex="1">
                    <mxGeometry y="108" width="120" height="10" as="geometry"/>
                </mxCell>
                <mxCell id="153" value="" style="shape=partialRectangle;top=0;left=0;bottom=0;align=left;verticalAlign=top;spacingLeft=4;spacingRight=4;overflow=hidden;rotatable=0;points=[];portConstraint=eastwest;part=1;fontSize=12;fillColor=none;labelBackgroundColor=none;strokeColor=#0D0D0D;fontColor=#0D0D0D;" parent="152" vertex="1" connectable="0">
                    <mxGeometry width="30" height="10" as="geometry"/>
                </mxCell>
                <mxCell id="215" style="edgeStyle=orthogonalEdgeStyle;rounded=0;jumpStyle=none;orthogonalLoop=1;jettySize=auto;html=1;exitX=0.5;exitY=1;exitDx=0;exitDy=0;shadow=0;startArrow=ERone;startFill=0;endArrow=ERzeroToMany;endFill=1;fontColor=#0D0D0D;fillColor=none;labelBackgroundColor=none;strokeColor=#0D0D0D;" parent="1" edge="1">
                    <mxGeometry relative="1" as="geometry">
                        <mxPoint x="500.00023255813954" y="560" as="targetPoint"/>
                        <mxPoint x="500.07" y="486" as="sourcePoint"/>
                        <Array as="points">
                            <mxPoint x="500.07" y="530"/>
                            <mxPoint x="500.07" y="530"/>
                        </Array>
                    </mxGeometry>
                </mxCell>
                <mxCell id="220" style="edgeStyle=orthogonalEdgeStyle;rounded=0;jumpStyle=none;orthogonalLoop=1;jettySize=auto;html=1;exitX=0.5;exitY=0;exitDx=0;exitDy=0;entryX=0.5;entryY=1;entryDx=0;entryDy=0;shadow=0;startArrow=ERone;startFill=0;endArrow=ERzeroToMany;endFill=1;fontColor=#0D0D0D;fillColor=none;labelBackgroundColor=none;strokeColor=#0D0D0D;" parent="1" source="86" target="132" edge="1">
                    <mxGeometry relative="1" as="geometry"/>
                </mxCell>
                <mxCell id="86" value="post" style="swimlane;fontStyle=0;childLayout=stackLayout;horizontal=1;startSize=26;horizontalStack=0;resizeParent=1;resizeParentMax=0;resizeLast=0;collapsible=1;marginBottom=0;align=center;fontSize=14;fillColor=#b1ddf0;labelBackgroundColor=none;strokeColor=#10739e;fontColor=#000000;" parent="1" vertex="1">
                    <mxGeometry x="270" y="400" width="120" height="140" as="geometry"/>
                </mxCell>
                <mxCell id="87" value="ID" style="shape=partialRectangle;top=0;left=0;right=0;bottom=1;align=left;verticalAlign=middle;spacingLeft=34;spacingRight=4;overflow=hidden;rotatable=0;points=[[0,0.5],[1,0.5]];portConstraint=eastwest;dropTarget=0;fontStyle=5;fontSize=12;fillColor=none;labelBackgroundColor=none;strokeColor=#0D0D0D;fontColor=#0D0D0D;" parent="86" vertex="1">
                    <mxGeometry y="26" width="120" height="30" as="geometry"/>
                </mxCell>
                <mxCell id="88" value="PK" style="shape=partialRectangle;top=0;left=0;bottom=0;align=left;verticalAlign=middle;spacingLeft=4;spacingRight=4;overflow=hidden;rotatable=0;points=[];portConstraint=eastwest;part=1;fontSize=12;fillColor=none;labelBackgroundColor=none;strokeColor=#0D0D0D;fontColor=#0D0D0D;" parent="87" vertex="1" connectable="0">
                    <mxGeometry width="30" height="30" as="geometry"/>
                </mxCell>
                <mxCell id="91" value="user_id" style="shape=partialRectangle;top=0;left=0;right=0;bottom=0;align=left;verticalAlign=top;spacingLeft=34;spacingRight=4;overflow=hidden;rotatable=0;points=[[0,0.5],[1,0.5]];portConstraint=eastwest;dropTarget=0;fontSize=12;fillColor=none;labelBackgroundColor=none;strokeColor=#0D0D0D;fontColor=#0D0D0D;" parent="86" vertex="1">
                    <mxGeometry y="56" width="120" height="26" as="geometry"/>
                </mxCell>
                <mxCell id="92" value="FK" style="shape=partialRectangle;top=0;left=0;bottom=0;align=left;verticalAlign=top;spacingLeft=4;spacingRight=4;overflow=hidden;rotatable=0;points=[];portConstraint=eastwest;part=1;fontSize=12;fillColor=none;labelBackgroundColor=none;strokeColor=#0D0D0D;fontColor=#0D0D0D;" parent="91" vertex="1" connectable="0">
                    <mxGeometry width="30" height="26" as="geometry"/>
                </mxCell>
                <mxCell id="141" value="content" style="shape=partialRectangle;top=0;left=0;right=0;bottom=0;align=left;verticalAlign=top;spacingLeft=34;spacingRight=4;overflow=hidden;rotatable=0;points=[[0,0.5],[1,0.5]];portConstraint=eastwest;dropTarget=0;fontSize=12;fillColor=none;labelBackgroundColor=none;strokeColor=#0D0D0D;fontColor=#0D0D0D;" parent="86" vertex="1">
                    <mxGeometry y="82" width="120" height="26" as="geometry"/>
                </mxCell>
                <mxCell id="142" value="" style="shape=partialRectangle;top=0;left=0;bottom=0;align=left;verticalAlign=top;spacingLeft=4;spacingRight=4;overflow=hidden;rotatable=0;points=[];portConstraint=eastwest;part=1;fontSize=12;fillColor=none;labelBackgroundColor=none;strokeColor=#0D0D0D;fontColor=#0D0D0D;" parent="141" vertex="1" connectable="0">
                    <mxGeometry width="30" height="26" as="geometry"/>
                </mxCell>
                <mxCell id="89" value="image" style="shape=partialRectangle;top=0;left=0;right=0;bottom=0;align=left;verticalAlign=top;spacingLeft=34;spacingRight=4;overflow=hidden;rotatable=0;points=[[0,0.5],[1,0.5]];portConstraint=eastwest;dropTarget=0;fontSize=12;fillColor=none;labelBackgroundColor=none;strokeColor=#0D0D0D;fontColor=#0D0D0D;" parent="86" vertex="1">
                    <mxGeometry y="108" width="120" height="26" as="geometry"/>
                </mxCell>
                <mxCell id="90" value="" style="shape=partialRectangle;top=0;left=0;bottom=0;align=left;verticalAlign=top;spacingLeft=4;spacingRight=4;overflow=hidden;rotatable=0;points=[];portConstraint=eastwest;part=1;fontSize=12;fillColor=none;labelBackgroundColor=none;strokeColor=#0D0D0D;fontColor=#0D0D0D;" parent="89" vertex="1" connectable="0">
                    <mxGeometry width="30" height="26" as="geometry"/>
                </mxCell>
                <mxCell id="95" value="" style="shape=partialRectangle;top=0;left=0;right=0;bottom=0;align=left;verticalAlign=top;spacingLeft=34;spacingRight=4;overflow=hidden;rotatable=0;points=[[0,0.5],[1,0.5]];portConstraint=eastwest;dropTarget=0;fontSize=12;fillColor=none;labelBackgroundColor=none;strokeColor=#0D0D0D;fontColor=#0D0D0D;" parent="86" vertex="1">
                    <mxGeometry y="134" width="120" height="6" as="geometry"/>
                </mxCell>
                <mxCell id="96" value="" style="shape=partialRectangle;top=0;left=0;bottom=0;align=left;verticalAlign=top;spacingLeft=4;spacingRight=4;overflow=hidden;rotatable=0;points=[];portConstraint=eastwest;part=1;fontSize=12;fillColor=none;labelBackgroundColor=none;strokeColor=#0D0D0D;fontColor=#0D0D0D;" parent="95" vertex="1" connectable="0">
                    <mxGeometry width="30" height="6" as="geometry"/>
                </mxCell>
                <mxCell id="221" style="edgeStyle=orthogonalEdgeStyle;rounded=0;jumpStyle=none;orthogonalLoop=1;jettySize=auto;html=1;shadow=0;startArrow=ERone;startFill=0;endArrow=ERzeroToMany;endFill=1;entryX=0.498;entryY=0.983;entryDx=0;entryDy=0;entryPerimeter=0;fontColor=#0D0D0D;fillColor=none;labelBackgroundColor=none;strokeColor=#0D0D0D;" parent="1" source="75" target="62" edge="1">
                    <mxGeometry relative="1" as="geometry">
                        <mxPoint x="810" y="290" as="targetPoint"/>
                        <Array as="points">
                            <mxPoint x="810" y="300"/>
                            <mxPoint x="810" y="300"/>
                        </Array>
                    </mxGeometry>
                </mxCell>
                <mxCell id="53" value="entry" style="swimlane;fontStyle=0;childLayout=stackLayout;horizontal=1;startSize=26;horizontalStack=0;resizeParent=1;resizeParentMax=0;resizeLast=0;collapsible=1;marginBottom=0;align=center;fontSize=14;fillColor=#b1ddf0;labelBackgroundColor=none;strokeColor=#10739e;fontColor=#000000;" parent="1" vertex="1">
                    <mxGeometry x="730" y="170" width="160" height="118" as="geometry"/>
                </mxCell>
                <mxCell id="54" value="ID" style="shape=partialRectangle;top=0;left=0;right=0;bottom=1;align=left;verticalAlign=middle;spacingLeft=34;spacingRight=4;overflow=hidden;rotatable=0;points=[[0,0.5],[1,0.5]];portConstraint=eastwest;dropTarget=0;fontStyle=5;fontSize=12;fillColor=none;labelBackgroundColor=none;strokeColor=#0D0D0D;fontColor=#0D0D0D;" parent="53" vertex="1">
                    <mxGeometry y="26" width="160" height="30" as="geometry"/>
                </mxCell>
                <mxCell id="55" value="PK" style="shape=partialRectangle;top=0;left=0;bottom=0;align=left;verticalAlign=middle;spacingLeft=4;spacingRight=4;overflow=hidden;rotatable=0;points=[];portConstraint=eastwest;part=1;fontSize=12;fillColor=none;labelBackgroundColor=none;strokeColor=#0D0D0D;fontColor=#0D0D0D;" parent="54" vertex="1" connectable="0">
                    <mxGeometry width="30" height="30" as="geometry"/>
                </mxCell>
                <mxCell id="56" value="user_id" style="shape=partialRectangle;top=0;left=0;right=0;bottom=0;align=left;verticalAlign=top;spacingLeft=34;spacingRight=4;overflow=hidden;rotatable=0;points=[[0,0.5],[1,0.5]];portConstraint=eastwest;dropTarget=0;fontSize=12;fillColor=none;labelBackgroundColor=none;strokeColor=#0D0D0D;fontColor=#0D0D0D;" parent="53" vertex="1">
                    <mxGeometry y="56" width="160" height="26" as="geometry"/>
                </mxCell>
                <mxCell id="57" value="FK" style="shape=partialRectangle;top=0;left=0;bottom=0;align=left;verticalAlign=top;spacingLeft=4;spacingRight=4;overflow=hidden;rotatable=0;points=[];portConstraint=eastwest;part=1;fontSize=12;fillColor=none;labelBackgroundColor=none;strokeColor=#0D0D0D;fontColor=#0D0D0D;" parent="56" vertex="1" connectable="0">
                    <mxGeometry width="30" height="26" as="geometry"/>
                </mxCell>
                <mxCell id="58" value="room_id" style="shape=partialRectangle;top=0;left=0;right=0;bottom=0;align=left;verticalAlign=top;spacingLeft=34;spacingRight=4;overflow=hidden;rotatable=0;points=[[0,0.5],[1,0.5]];portConstraint=eastwest;dropTarget=0;fontSize=12;fillColor=none;labelBackgroundColor=none;strokeColor=#0D0D0D;fontColor=#0D0D0D;" parent="53" vertex="1">
                    <mxGeometry y="82" width="160" height="26" as="geometry"/>
                </mxCell>
                <mxCell id="59" value="FK" style="shape=partialRectangle;top=0;left=0;bottom=0;align=left;verticalAlign=top;spacingLeft=4;spacingRight=4;overflow=hidden;rotatable=0;points=[];portConstraint=eastwest;part=1;fontSize=12;fillColor=none;labelBackgroundColor=none;strokeColor=#0D0D0D;fontColor=#0D0D0D;" parent="58" vertex="1" connectable="0">
                    <mxGeometry width="30" height="26" as="geometry"/>
                </mxCell>
                <mxCell id="62" value="" style="shape=partialRectangle;top=0;left=0;right=0;bottom=0;align=left;verticalAlign=top;spacingLeft=34;spacingRight=4;overflow=hidden;rotatable=0;points=[[0,0.5],[1,0.5]];portConstraint=eastwest;dropTarget=0;fontSize=12;fillColor=none;labelBackgroundColor=none;strokeColor=#0D0D0D;fontColor=#0D0D0D;" parent="53" vertex="1">
                    <mxGeometry y="108" width="160" height="10" as="geometry"/>
                </mxCell>
                <mxCell id="63" value="" style="shape=partialRectangle;top=0;left=0;bottom=0;align=left;verticalAlign=top;spacingLeft=4;spacingRight=4;overflow=hidden;rotatable=0;points=[];portConstraint=eastwest;part=1;fontSize=12;fillColor=none;labelBackgroundColor=none;strokeColor=#0D0D0D;fontColor=#0D0D0D;" parent="62" vertex="1" connectable="0">
                    <mxGeometry width="30" height="10" as="geometry"/>
                </mxCell>
                <mxCell id="64" value="message" style="swimlane;fontStyle=0;childLayout=stackLayout;horizontal=1;startSize=26;horizontalStack=0;resizeParent=1;resizeParentMax=0;resizeLast=0;collapsible=1;marginBottom=0;align=center;fontSize=14;fillColor=#b1ddf0;labelBackgroundColor=none;strokeColor=#10739e;fontColor=#000000;" parent="1" vertex="1">
                    <mxGeometry x="730" y="480" width="160" height="144" as="geometry"/>
                </mxCell>
                <mxCell id="65" value="ID" style="shape=partialRectangle;top=0;left=0;right=0;bottom=1;align=left;verticalAlign=middle;spacingLeft=34;spacingRight=4;overflow=hidden;rotatable=0;points=[[0,0.5],[1,0.5]];portConstraint=eastwest;dropTarget=0;fontStyle=5;fontSize=12;fillColor=none;labelBackgroundColor=none;strokeColor=#0D0D0D;fontColor=#0D0D0D;" parent="64" vertex="1">
                    <mxGeometry y="26" width="160" height="30" as="geometry"/>
                </mxCell>
                <mxCell id="66" value="PK" style="shape=partialRectangle;top=0;left=0;bottom=0;align=left;verticalAlign=middle;spacingLeft=4;spacingRight=4;overflow=hidden;rotatable=0;points=[];portConstraint=eastwest;part=1;fontSize=12;fillColor=none;labelBackgroundColor=none;strokeColor=#0D0D0D;fontColor=#0D0D0D;" parent="65" vertex="1" connectable="0">
                    <mxGeometry width="30" height="30" as="geometry"/>
                </mxCell>
                <mxCell id="67" value="user_id" style="shape=partialRectangle;top=0;left=0;right=0;bottom=0;align=left;verticalAlign=top;spacingLeft=34;spacingRight=4;overflow=hidden;rotatable=0;points=[[0,0.5],[1,0.5]];portConstraint=eastwest;dropTarget=0;fontSize=12;fillColor=none;labelBackgroundColor=none;strokeColor=#0D0D0D;fontColor=#0D0D0D;" parent="64" vertex="1">
                    <mxGeometry y="56" width="160" height="26" as="geometry"/>
                </mxCell>
                <mxCell id="68" value="FK" style="shape=partialRectangle;top=0;left=0;bottom=0;align=left;verticalAlign=top;spacingLeft=4;spacingRight=4;overflow=hidden;rotatable=0;points=[];portConstraint=eastwest;part=1;fontSize=12;fillColor=none;labelBackgroundColor=none;strokeColor=#0D0D0D;fontColor=#0D0D0D;" parent="67" vertex="1" connectable="0">
                    <mxGeometry width="30" height="26" as="geometry"/>
                </mxCell>
                <mxCell id="69" value="room_id" style="shape=partialRectangle;top=0;left=0;right=0;bottom=0;align=left;verticalAlign=top;spacingLeft=34;spacingRight=4;overflow=hidden;rotatable=0;points=[[0,0.5],[1,0.5]];portConstraint=eastwest;dropTarget=0;fontSize=12;fillColor=none;labelBackgroundColor=none;strokeColor=#0D0D0D;fontColor=#0D0D0D;" parent="64" vertex="1">
                    <mxGeometry y="82" width="160" height="26" as="geometry"/>
                </mxCell>
                <mxCell id="70" value="FK" style="shape=partialRectangle;top=0;left=0;bottom=0;align=left;verticalAlign=top;spacingLeft=4;spacingRight=4;overflow=hidden;rotatable=0;points=[];portConstraint=eastwest;part=1;fontSize=12;fillColor=none;labelBackgroundColor=none;strokeColor=#0D0D0D;fontColor=#0D0D0D;" parent="69" vertex="1" connectable="0">
                    <mxGeometry width="30" height="26" as="geometry"/>
                </mxCell>
                <mxCell id="71" value="content" style="shape=partialRectangle;top=0;left=0;right=0;bottom=0;align=left;verticalAlign=top;spacingLeft=34;spacingRight=4;overflow=hidden;rotatable=0;points=[[0,0.5],[1,0.5]];portConstraint=eastwest;dropTarget=0;fontSize=12;fillColor=none;labelBackgroundColor=none;strokeColor=#0D0D0D;fontColor=#0D0D0D;" parent="64" vertex="1">
                    <mxGeometry y="108" width="160" height="26" as="geometry"/>
                </mxCell>
                <mxCell id="72" value="" style="shape=partialRectangle;top=0;left=0;bottom=0;align=left;verticalAlign=top;spacingLeft=4;spacingRight=4;overflow=hidden;rotatable=0;points=[];portConstraint=eastwest;part=1;fontSize=12;fillColor=none;labelBackgroundColor=none;strokeColor=#0D0D0D;fontColor=#0D0D0D;" parent="71" vertex="1" connectable="0">
                    <mxGeometry width="30" height="26" as="geometry"/>
                </mxCell>
                <mxCell id="73" value="" style="shape=partialRectangle;top=0;left=0;right=0;bottom=0;align=left;verticalAlign=top;spacingLeft=34;spacingRight=4;overflow=hidden;rotatable=0;points=[[0,0.5],[1,0.5]];portConstraint=eastwest;dropTarget=0;fontSize=12;fillColor=none;labelBackgroundColor=none;strokeColor=#0D0D0D;fontColor=#0D0D0D;" parent="64" vertex="1">
                    <mxGeometry y="134" width="160" height="10" as="geometry"/>
                </mxCell>
                <mxCell id="74" value="" style="shape=partialRectangle;top=0;left=0;bottom=0;align=left;verticalAlign=top;spacingLeft=4;spacingRight=4;overflow=hidden;rotatable=0;points=[];portConstraint=eastwest;part=1;fontSize=12;fillColor=none;labelBackgroundColor=none;strokeColor=#0D0D0D;fontColor=#0D0D0D;" parent="73" vertex="1" connectable="0">
                    <mxGeometry width="30" height="10" as="geometry"/>
                </mxCell>
                <mxCell id="216" style="edgeStyle=orthogonalEdgeStyle;rounded=0;jumpStyle=none;orthogonalLoop=1;jettySize=auto;html=1;exitX=1;exitY=0.5;exitDx=0;exitDy=0;entryX=0;entryY=0.5;entryDx=0;entryDy=0;shadow=0;startArrow=ERone;startFill=0;endArrow=ERzeroToMany;endFill=1;fontColor=#0D0D0D;fillColor=none;labelBackgroundColor=none;strokeColor=#0D0D0D;" parent="1" source="36" target="65" edge="1">
                    <mxGeometry relative="1" as="geometry"/>
                </mxCell>
                <mxCell id="217" style="edgeStyle=orthogonalEdgeStyle;rounded=0;jumpStyle=none;orthogonalLoop=1;jettySize=auto;html=1;exitX=1;exitY=0.5;exitDx=0;exitDy=0;shadow=0;startArrow=ERone;startFill=0;endArrow=ERzeroToMany;endFill=1;fontColor=#0D0D0D;fillColor=none;labelBackgroundColor=none;strokeColor=#0D0D0D;" parent="1" source="4" target="58" edge="1">
                    <mxGeometry relative="1" as="geometry"/>
                </mxCell>
                <mxCell id="224" style="edgeStyle=orthogonalEdgeStyle;rounded=0;jumpStyle=none;orthogonalLoop=1;jettySize=auto;html=1;shadow=0;startArrow=ERone;startFill=0;endArrow=ERzeroToMany;endFill=1;entryX=0.5;entryY=0;entryDx=0;entryDy=0;fontColor=#0D0D0D;fillColor=none;labelBackgroundColor=none;strokeColor=#0D0D0D;" parent="1" target="64" edge="1">
                    <mxGeometry relative="1" as="geometry">
                        <mxPoint x="809.9" y="474" as="targetPoint"/>
                        <mxPoint x="810" y="414" as="sourcePoint"/>
                        <Array as="points">
                            <mxPoint x="810" y="420"/>
                            <mxPoint x="810" y="420"/>
                        </Array>
                    </mxGeometry>
                </mxCell>
                <mxCell id="163" value="follow" style="swimlane;fontStyle=0;childLayout=stackLayout;horizontal=1;startSize=26;horizontalStack=0;resizeParent=1;resizeParentMax=0;resizeLast=0;collapsible=1;marginBottom=0;align=center;fontSize=14;fillColor=#b1ddf0;labelBackgroundColor=none;strokeColor=#10739e;fontColor=#000000;" parent="1" vertex="1">
                    <mxGeometry x="480" y="110" width="120" height="118" as="geometry"/>
                </mxCell>
                <mxCell id="164" value="ID" style="shape=partialRectangle;top=0;left=0;right=0;bottom=1;align=left;verticalAlign=middle;spacingLeft=34;spacingRight=4;overflow=hidden;rotatable=0;points=[[0,0.5],[1,0.5]];portConstraint=eastwest;dropTarget=0;fontStyle=5;fontSize=12;fillColor=none;labelBackgroundColor=none;strokeColor=#0D0D0D;fontColor=#0D0D0D;" parent="163" vertex="1">
                    <mxGeometry y="26" width="120" height="30" as="geometry"/>
                </mxCell>
                <mxCell id="165" value="PK" style="shape=partialRectangle;top=0;left=0;bottom=0;align=left;verticalAlign=middle;spacingLeft=4;spacingRight=4;overflow=hidden;rotatable=0;points=[];portConstraint=eastwest;part=1;fontSize=12;fillColor=none;labelBackgroundColor=none;strokeColor=#0D0D0D;fontColor=#0D0D0D;" parent="164" vertex="1" connectable="0">
                    <mxGeometry width="30" height="30" as="geometry"/>
                </mxCell>
                <mxCell id="166" value="follower_id" style="shape=partialRectangle;top=0;left=0;right=0;bottom=0;align=left;verticalAlign=top;spacingLeft=34;spacingRight=4;overflow=hidden;rotatable=0;points=[[0,0.5],[1,0.5]];portConstraint=eastwest;dropTarget=0;fontSize=12;fillColor=none;labelBackgroundColor=none;strokeColor=#0D0D0D;fontColor=#0D0D0D;" parent="163" vertex="1">
                    <mxGeometry y="56" width="120" height="26" as="geometry"/>
                </mxCell>
                <mxCell id="167" value="FK" style="shape=partialRectangle;top=0;left=0;bottom=0;align=left;verticalAlign=top;spacingLeft=4;spacingRight=4;overflow=hidden;rotatable=0;points=[];portConstraint=eastwest;part=1;fontSize=12;fillColor=none;labelBackgroundColor=none;strokeColor=#0D0D0D;fontColor=#0D0D0D;" parent="166" vertex="1" connectable="0">
                    <mxGeometry width="30" height="26" as="geometry"/>
                </mxCell>
                <mxCell id="168" value="followed_id" style="shape=partialRectangle;top=0;left=0;right=0;bottom=0;align=left;verticalAlign=top;spacingLeft=34;spacingRight=4;overflow=hidden;rotatable=0;points=[[0,0.5],[1,0.5]];portConstraint=eastwest;dropTarget=0;fontSize=12;fillColor=none;labelBackgroundColor=none;strokeColor=#0D0D0D;fontColor=#0D0D0D;" parent="163" vertex="1">
                    <mxGeometry y="82" width="120" height="26" as="geometry"/>
                </mxCell>
                <mxCell id="169" value="FK" style="shape=partialRectangle;top=0;left=0;bottom=0;align=left;verticalAlign=top;spacingLeft=4;spacingRight=4;overflow=hidden;rotatable=0;points=[];portConstraint=eastwest;part=1;fontSize=12;fillColor=none;labelBackgroundColor=none;strokeColor=#0D0D0D;fontColor=#0D0D0D;" parent="168" vertex="1" connectable="0">
                    <mxGeometry width="30" height="26" as="geometry"/>
                </mxCell>
                <mxCell id="170" value="" style="shape=partialRectangle;top=0;left=0;right=0;bottom=0;align=left;verticalAlign=top;spacingLeft=34;spacingRight=4;overflow=hidden;rotatable=0;points=[[0,0.5],[1,0.5]];portConstraint=eastwest;dropTarget=0;fontSize=12;fillColor=none;labelBackgroundColor=none;strokeColor=#0D0D0D;fontColor=#0D0D0D;" parent="163" vertex="1">
                    <mxGeometry y="108" width="120" height="10" as="geometry"/>
                </mxCell>
                <mxCell id="171" value="" style="shape=partialRectangle;top=0;left=0;bottom=0;align=left;verticalAlign=top;spacingLeft=4;spacingRight=4;overflow=hidden;rotatable=0;points=[];portConstraint=eastwest;part=1;fontSize=12;fillColor=none;labelBackgroundColor=none;strokeColor=#0D0D0D;fontColor=#0D0D0D;" parent="170" vertex="1" connectable="0">
                    <mxGeometry width="30" height="10" as="geometry"/>
                </mxCell>
                <mxCell id="75" value="room" style="swimlane;fontStyle=0;childLayout=stackLayout;horizontal=1;startSize=26;horizontalStack=0;resizeParent=1;resizeParentMax=0;resizeLast=0;collapsible=1;marginBottom=0;align=center;fontSize=14;fillColor=#b1ddf0;labelBackgroundColor=none;strokeColor=#10739e;fontColor=#000000;" parent="1" vertex="1">
                    <mxGeometry x="730" y="357.5" width="160" height="56" as="geometry"/>
                </mxCell>
                <mxCell id="76" value="ID" style="shape=partialRectangle;top=0;left=0;right=0;bottom=1;align=left;verticalAlign=middle;spacingLeft=34;spacingRight=4;overflow=hidden;rotatable=0;points=[[0,0.5],[1,0.5]];portConstraint=eastwest;dropTarget=0;fontStyle=5;fontSize=12;fillColor=none;labelBackgroundColor=none;strokeColor=#0D0D0D;fontColor=#0D0D0D;" parent="75" vertex="1">
                    <mxGeometry y="26" width="160" height="30" as="geometry"/>
                </mxCell>
                <mxCell id="77" value="PK" style="shape=partialRectangle;top=0;left=0;bottom=0;align=left;verticalAlign=middle;spacingLeft=4;spacingRight=4;overflow=hidden;rotatable=0;points=[];portConstraint=eastwest;part=1;fontSize=12;fillColor=none;labelBackgroundColor=none;strokeColor=#0D0D0D;fontColor=#0D0D0D;" parent="76" vertex="1" connectable="0">
                    <mxGeometry width="30" height="30" as="geometry"/>
                </mxCell>
                <mxCell id="132" value="comment" style="swimlane;fontStyle=0;childLayout=stackLayout;horizontal=1;startSize=26;horizontalStack=0;resizeParent=1;resizeParentMax=0;resizeLast=0;collapsible=1;marginBottom=0;align=center;fontSize=14;fillColor=#b1ddf0;labelBackgroundColor=none;strokeColor=#10739e;fontColor=#000000;" parent="1" vertex="1">
                    <mxGeometry x="270" y="213.5" width="120" height="144" as="geometry"/>
                </mxCell>
                <mxCell id="133" value="ID" style="shape=partialRectangle;top=0;left=0;right=0;bottom=1;align=left;verticalAlign=middle;spacingLeft=34;spacingRight=4;overflow=hidden;rotatable=0;points=[[0,0.5],[1,0.5]];portConstraint=eastwest;dropTarget=0;fontStyle=5;fontSize=12;fillColor=none;labelBackgroundColor=none;strokeColor=#0D0D0D;fontColor=#0D0D0D;" parent="132" vertex="1">
                    <mxGeometry y="26" width="120" height="30" as="geometry"/>
                </mxCell>
                <mxCell id="134" value="PK" style="shape=partialRectangle;top=0;left=0;bottom=0;align=left;verticalAlign=middle;spacingLeft=4;spacingRight=4;overflow=hidden;rotatable=0;points=[];portConstraint=eastwest;part=1;fontSize=12;fillColor=none;labelBackgroundColor=none;strokeColor=#0D0D0D;fontColor=#0D0D0D;" parent="133" vertex="1" connectable="0">
                    <mxGeometry width="30" height="30" as="geometry"/>
                </mxCell>
                <mxCell id="135" value="post_id" style="shape=partialRectangle;top=0;left=0;right=0;bottom=0;align=left;verticalAlign=top;spacingLeft=34;spacingRight=4;overflow=hidden;rotatable=0;points=[[0,0.5],[1,0.5]];portConstraint=eastwest;dropTarget=0;fontSize=12;fillColor=none;labelBackgroundColor=none;strokeColor=#0D0D0D;fontColor=#0D0D0D;" parent="132" vertex="1">
                    <mxGeometry y="56" width="120" height="26" as="geometry"/>
                </mxCell>
                <mxCell id="136" value="FK" style="shape=partialRectangle;top=0;left=0;bottom=0;align=left;verticalAlign=top;spacingLeft=4;spacingRight=4;overflow=hidden;rotatable=0;points=[];portConstraint=eastwest;part=1;fontSize=12;fillColor=none;labelBackgroundColor=none;strokeColor=#0D0D0D;fontColor=#0D0D0D;" parent="135" vertex="1" connectable="0">
                    <mxGeometry width="30" height="26" as="geometry"/>
                </mxCell>
                <mxCell id="137" value="user_id" style="shape=partialRectangle;top=0;left=0;right=0;bottom=0;align=left;verticalAlign=top;spacingLeft=34;spacingRight=4;overflow=hidden;rotatable=0;points=[[0,0.5],[1,0.5]];portConstraint=eastwest;dropTarget=0;fontSize=12;fillColor=none;labelBackgroundColor=none;strokeColor=#0D0D0D;fontColor=#0D0D0D;" parent="132" vertex="1">
                    <mxGeometry y="82" width="120" height="26" as="geometry"/>
                </mxCell>
                <mxCell id="138" value="FK" style="shape=partialRectangle;top=0;left=0;bottom=0;align=left;verticalAlign=top;spacingLeft=4;spacingRight=4;overflow=hidden;rotatable=0;points=[];portConstraint=eastwest;part=1;fontSize=12;fillColor=none;labelBackgroundColor=none;strokeColor=#0D0D0D;fontColor=#0D0D0D;" parent="137" vertex="1" connectable="0">
                    <mxGeometry width="30" height="26" as="geometry"/>
                </mxCell>
                <mxCell id="225" value="content" style="shape=partialRectangle;top=0;left=0;right=0;bottom=0;align=left;verticalAlign=top;spacingLeft=34;spacingRight=4;overflow=hidden;rotatable=0;points=[[0,0.5],[1,0.5]];portConstraint=eastwest;dropTarget=0;fontSize=12;fillColor=none;labelBackgroundColor=none;strokeColor=#0D0D0D;fontColor=#0D0D0D;" parent="132" vertex="1">
                    <mxGeometry y="108" width="120" height="26" as="geometry"/>
                </mxCell>
                <mxCell id="226" value="" style="shape=partialRectangle;top=0;left=0;bottom=0;align=left;verticalAlign=top;spacingLeft=4;spacingRight=4;overflow=hidden;rotatable=0;points=[];portConstraint=eastwest;part=1;fontSize=12;fillColor=none;labelBackgroundColor=none;strokeColor=#0D0D0D;fontColor=#0D0D0D;" parent="225" vertex="1" connectable="0">
                    <mxGeometry width="30" height="26" as="geometry"/>
                </mxCell>
                <mxCell id="139" value="" style="shape=partialRectangle;top=0;left=0;right=0;bottom=0;align=left;verticalAlign=top;spacingLeft=34;spacingRight=4;overflow=hidden;rotatable=0;points=[[0,0.5],[1,0.5]];portConstraint=eastwest;dropTarget=0;fontSize=12;fillColor=none;labelBackgroundColor=none;strokeColor=#0D0D0D;fontColor=#0D0D0D;" parent="132" vertex="1">
                    <mxGeometry y="134" width="120" height="10" as="geometry"/>
                </mxCell>
                <mxCell id="140" value="" style="shape=partialRectangle;top=0;left=0;bottom=0;align=left;verticalAlign=top;spacingLeft=4;spacingRight=4;overflow=hidden;rotatable=0;points=[];portConstraint=eastwest;part=1;fontSize=12;fillColor=none;labelBackgroundColor=none;strokeColor=#0D0D0D;fontColor=#0D0D0D;" parent="139" vertex="1" connectable="0">
                    <mxGeometry width="30" height="10" as="geometry"/>
                </mxCell>
            </root>
        </mxGraphModel>
    </diagram>
</mxfile>
